Coordinates
version=1
nRows=6
nColumns=36
inDegrees=yes

Units are S.I. units (second, meters, Newtons, ...)
If the header above contains a line with 'inDegrees', this indicates whether rotational values are in degrees (yes) or radians (no).

endheader
time	pelvis_tilt	pelvis_list	pelvis_rotation	pelvis_tx	pelvis_ty	pelvis_tz	hip_flexion_r	hip_adduction_r	hip_rotation_r	knee_angle_r	knee_angle_r_beta	ankle_angle_r	subtalar_angle_r	mtp_angle_r	hip_flexion_l	hip_adduction_l	hip_rotation_l	knee_angle_l	knee_angle_l_beta	ankle_angle_l	subtalar_angle_l	mtp_angle_l	lumbar_extension	lumbar_bending	lumbar_rotation	arm_flex_r	arm_add_r	arm_rot_r	elbow_flex_r	pro_sup_r	arm_flex_l	arm_add_l	arm_rot_l	elbow_flex_l	pro_sup_l
      0.00000000	     28.05055728	      1.42603123	      3.89250442	     -0.59872156	      0.58293790	     -0.61937105	     56.90171636	    -12.14758053	      2.76708514	     92.18588298	      1.60894718	     11.79847458	      1.85744215	     -4.37678792	     57.76556017	     -4.54580323	      1.69581500	     90.63938229	      1.58195565	      5.64540684	     -2.79853539	     -4.37678792	    -39.67036633	     -0.38768332	     -1.14933333	      0.87786214	     -3.11018693	    -12.88581906	    115.51734537	     95.26174928	      1.29003683	     -1.29558056	    -14.08287067	    114.60185634	     82.16117404
      0.01000000	     27.97655857	      1.39584037	      3.93057946	     -0.59862262	      0.58286682	     -0.61950701	     56.96963465	    -12.18015652	      2.71514362	     92.18647873	      1.60895758	     11.75040061	      1.86695015	     -5.44720507	     57.87062347	     -4.51897458	      1.73509616	     90.66441525	      1.58239256	      5.59624737	     -2.79704753	     -5.44720507	    -39.57477217	     -0.33429687	     -1.15898082	      0.88097264	     -3.11867815	    -12.95433512	    115.48394034	     95.63924380	      1.28020214	     -1.26768927	    -14.27435264	    113.78600481	     88.29272363
      0.02000000	     27.92435250	      1.38332246	      3.94019583	     -0.59856254	      0.58276660	     -0.61955750	     57.03815418	    -12.18627762	      2.69424616	     92.19387642	      1.60908669	     11.62623689	      1.69069716	     -5.56772449	     57.94139852	     -4.51201517	      1.75270947	     90.68083237	      1.58267909	      5.58573347	     -2.81426673	     -5.56772449	    -39.51111401	     -0.32067112	     -1.14553052	      0.85641814	     -3.16712600	    -12.88063386	    115.59864205	     94.70711477	      1.25610191	     -1.27894114	    -14.21771627	    113.84604042	     87.54052116
      0.03000000	     27.82641222	      1.36225551	      3.96746217	     -0.59844833	      0.58255535	     -0.61959455	     57.16278701	    -12.19100726	      2.66897837	     92.21842284	      1.60951511	     11.48381166	      1.47084454	     -5.69400022	     58.07752423	     -4.49007074	      1.79628399	     90.70044830	      1.58302146	      5.56079831	     -2.90017300	     -5.69400022	    -39.39863995	     -0.29691878	     -1.13067101	      0.80823479	     -3.23770919	    -12.75040592	    115.76439490	     93.44822740	      1.23823455	     -1.29110091	    -14.11622034	    113.93212828	     86.42808296
      0.04000000	     27.83844805	      1.35298919	      3.94588619	     -0.59851171	      0.58258405	     -0.61954131	     57.15475411	    -12.13592518	      2.69573735	     92.21381105	      1.60943462	     11.38030776	      1.44331476	     -5.73486439	     58.07219767	     -4.50909591	      1.80533290	     90.71251507	      1.58323206	      5.49443992	     -2.85258205	     -5.73486439	    -39.37232606	     -0.30582256	     -1.10101383	      0.90556034	     -3.23087792	    -12.76114853	    115.50504595	     93.12045727	      1.32006322	     -1.30238734	    -14.11125145	    113.70723371	     86.13206957
      0.05000000	     27.86620665	      1.36710185	      3.96022420	     -0.59849510	      0.58261649	     -0.61955381	     57.11967282	    -12.17447240	      2.68220642	     92.22292888	      1.60959375	     11.47750152	      1.47642446	     -5.73476871	     58.02524584	     -4.49697039	      1.77606315	     90.69880690	      1.58299281	      5.51972024	     -2.89985310	     -5.73476871	    -39.45261587	     -0.32850581	     -1.10666584	      0.86252723	     -3.23207673	    -12.78232232	    115.71574334	     93.36295929	      1.27666902	     -1.28495076	    -14.08658205	    113.92350666	     86.15637572
